<?xml version="1.0" standalone="no"?>
<!DOCTYPE svg PUBLIC "-//W3C//DTD SVG 1.1//EN" "http://www.w3.org/Graphics/SVG/1.1/DTD/svg11.dtd" >
<svg xmlns="http://www.w3.org/2000/svg">
<metadata></metadata>
<defs>
<font id="helvlightregular" horiz-adv-x="1138" >
<font-face units-per-em="2048" ascent="1638" descent="-410" />
<missing-glyph horiz-adv-x="569" />
<glyph horiz-adv-x="2048" />
<glyph horiz-adv-x="2048" />
<glyph unicode="&#xd;" horiz-adv-x="569" />
<glyph unicode=" "  horiz-adv-x="569" />
<glyph unicode="&#x09;" horiz-adv-x="569" />
<glyph unicode="&#xa0;" horiz-adv-x="569" />
<glyph unicode="!" horiz-adv-x="681" d="M266 0v180h150v-180h-150zM266 1016v459h150v-459l-29 -645h-92z" />
<glyph unicode="&#x22;" horiz-adv-x="569" d="M117 1012v463h106v-463h-106zM344 1012v463h107v-463h-107z" />
<glyph unicode="#" d="M55 467v121h244l43 286h-229v121h245l66 435h123l-66 -435h279l63 435h121l-63 -435h204v-121h-221l-41 -286h209v-121h-227l-66 -467h-121l64 467h-281l-69 -467h-121l70 467h-226zM420 588h282l41 286h-278z" />
<glyph unicode="$" d="M76 416h133q0 -137 82 -236q90 -109 231 -108v608q-203 49 -293 123q-115 94 -114 264q0 80 26.5 144.5t73.5 111.5q59 59 132 90t177 31v125h94v-125q102 0 177 -31t127 -82q39 -39 67.5 -105.5t28.5 -142.5h-133q0 121 -88 191q-76 59 -179 59v-545q244 -53 338 -143 q105 -98 105 -299q0 -166 -130 -275.5t-313 -109.5v-156h-94v156q-150 0 -261 74t-161 221q-16 49 -21 77.5t-5 82.5zM246 1075q0 -119 78 -182q57 -45 198 -86v526q-117 0 -196.5 -71.5t-79.5 -186.5zM618 72q135 0 223.5 88t88.5 207q0 141 -90 208q-68 51 -222 84v-587z " />
<glyph unicode="%" horiz-adv-x="1820" d="M137 1090q0 133 97.5 236.5t242.5 103.5q135 0 236.5 -100t101.5 -243q0 -137 -99.5 -236t-238.5 -99q-141 0 -240.5 99t-99.5 239zM254 1087q0 -88 65.5 -153.5t155.5 -65.5t156.5 67t66.5 155q0 92 -65.5 157.5t-157.5 65.5q-88 0 -154.5 -64.5t-66.5 -161.5zM449 -29 l813 1473h106l-813 -1473h-106zM1008 338q0 137 99 238.5t241 101.5q137 0 235 -98.5t98 -241.5q0 -141 -96 -239.5t-237 -98.5t-240.5 99.5t-99.5 238.5zM1124 336q0 -88 65.5 -153.5t156.5 -65.5q90 0 154.5 66.5t64.5 154.5q0 92 -63.5 157.5t-155.5 65.5 q-88 0 -155 -64.5t-67 -160.5z" />
<glyph unicode="&#x26;" horiz-adv-x="1366" d="M84 399q0 152 102 275q90 106 250 182q-76 88 -112 158q-45 86 -45 172q0 133 94 211t235 78q133 0 222.5 -81t89.5 -208q0 -119 -74 -205q-63 -76 -217 -162l370 -438q39 68 50.5 128t11.5 159h121q0 -129 -27 -218.5t-76 -166.5l240 -283h-166l-143 174 q-94 -113 -206 -163t-259 -50q-197 0 -326 119q-135 125 -135 319zM223 389q0 -145 94.5 -231t237.5 -86q113 0 207 54t168 142l-420 500q-125 -57 -206 -158.5t-81 -220.5zM403 1188q0 -51 43 -125q37 -66 111 -152q121 70 172 125q59 66 59 146q0 76 -51 129t-135 53 q-92 0 -145.5 -51t-53.5 -125z" />
<glyph unicode="'" horiz-adv-x="454" d="M174 1012v463h107v-463h-107z" />
<glyph unicode="(" horiz-adv-x="681" d="M113 565q0 254 80.5 476.5t269.5 471.5h104q-154 -223 -233.5 -464.5t-79.5 -493.5q0 -211 63 -426q78 -262 250 -520h-104q-195 268 -272.5 483t-77.5 473z" />
<glyph unicode=")" horiz-adv-x="681" d="M115 -391q154 223 233.5 464.5t79.5 493.5q0 211 -63 426q-78 262 -250 520h104q195 -268 272.5 -483t77.5 -473q0 -254 -80.5 -476t-269.5 -472h-104z" />
<glyph unicode="*" horiz-adv-x="796" d="M90 1237l37 86l227 -88v240h86v-240l234 86l31 -90l-234 -76l154 -217l-80 -49l-152 221l-160 -217l-71 55l157 207z" />
<glyph unicode="+" horiz-adv-x="1351" d="M164 451v122h450v451h123v-451h451v-122h-451v-451h-123v451h-450z" />
<glyph unicode="," horiz-adv-x="569" d="M209 0v180h149v-243q0 -76 -32 -130q-39 -63 -117 -88v76q70 39 70 133v72h-70z" />
<glyph unicode="-" horiz-adv-x="681" d="M82 469v127h518v-127h-518z" />
<glyph unicode="." horiz-adv-x="569" d="M209 0v180h149v-180h-149z" />
<glyph unicode="/" horiz-adv-x="569" d="M-6 -184l481 1697h115l-481 -1697h-115z" />
<glyph unicode="0" d="M80 709q0 334 88 505q119 229 401 230q283 0 400 -236q88 -176 88 -514q0 -330 -92 -501q-119 -221 -394 -222q-276 0 -395 217q-96 176 -96 521zM211 694q0 -274 61 -415q86 -197 297 -197t295 205q62 147 62 426q0 293 -72 440q-88 180 -289 180q-193 0 -280 -188 q-74 -158 -74 -451z" />
<glyph unicode="1" d="M246 1073v86q203 0 285.5 61.5t113.5 223.5h105v-1444h-132v1073h-372z" />
<glyph unicode="2" d="M98 0q0 135 34 223t122 176t211 170q10 6 197 119q98 59 145 107q57 57 80.5 114.5t23.5 126.5q0 141 -96 224q-88 74 -215 73q-147 0 -240 -110q-80 -96 -79 -226v-26h-140q0 229 140 356q127 117 331 117q211 0 332 -119q111 -110 111 -278q0 -104 -34 -180 t-101.5 -144t-364.5 -238q-133 -76 -209 -151q-61 -61 -84.5 -114.5t-23.5 -108.5h804v-111h-944z" />
<glyph unicode="3" d="M70 418h131q0 -156 94 -246t262 -90q150 0 255.5 91t105.5 220q0 156 -104.5 230.5t-291.5 74.5l-69 -2v107q213 0 309 61q104 68 104 221q0 121 -87 184.5t-216 63.5q-131 0 -217 -73q-96 -84 -96 -236h-131q0 100 31.5 174t94 136.5t144.5 86t193 23.5q186 0 295 -86 q121 -96 120 -275q0 -115 -53 -195.5t-151 -121.5q256 -80 256 -352q0 -207 -144 -330q-133 -113 -336 -113q-123 0 -207 23q-104 29 -167 92q-102 102 -125 332z" />
<glyph unicode="4" d="M74 356v113l671 961h119v-963h201v-111h-201v-356h-131v356h-659zM203 467h530v766z" />
<glyph unicode="5" d="M72 375h131q18 -141 115.5 -217t240.5 -76q154 0 250 104.5t96 264.5q0 164 -97 265t-259 101q-100 0 -176 -32.5t-140 -116.5l-108 14l117 748h716v-111h-606l-90 -485q82 53 151.5 73.5t159.5 20.5q209 0 336 -129t127 -346t-132 -349.5t-324 -132.5q-244 0 -376 106.5 t-132 297.5z" />
<glyph unicode="6" d="M84 668q0 311 98 508q133 268 426 268q168 0 277 -82q123 -94 145 -272h-135q-23 111 -86 174q-72 70 -188 69q-219 0 -320 -190q-86 -164 -86 -463q78 115 165 170t208 55q221 0 343 -122t122 -343t-122 -345t-337 -124q-244 0 -371 160q-139 174 -139 537zM264 438 q0 -150 80 -248q88 -109 250 -108q156 0 242 101.5t86 265.5q0 162 -78 249q-84 96 -250 97q-152 0 -241 -104.5t-89 -252.5z" />
<glyph unicode="7" d="M121 1298v132h919v-123q-197 -219 -340 -492q-123 -231 -188 -465q-57 -203 -57 -350h-144q0 256 156 614.5t416 683.5h-762z" />
<glyph unicode="8" d="M90 401q0 119 55 213q66 111 197 162q-117 70 -159 134.5t-42 179.5q0 141 107 243q115 111 297 111q197 0 315 -86q129 -94 129 -268q0 -225 -196 -322q125 -45 190.5 -142t65.5 -214q0 -213 -144 -330q-135 -111 -360 -111q-172 0 -301 101q-154 121 -154 329zM221 399 q0 -137 98.5 -227t260.5 -90q147 0 242.5 91.5t95.5 232.5t-92.5 221t-254.5 80q-160 0 -255 -79t-95 -229zM272 1073q0 -119 85 -187.5t223 -68.5q139 0 208.5 76t69.5 209q0 111 -67 168q-74 63 -224 63q-139 0 -217 -71.5t-78 -188.5z" />
<glyph unicode="9" d="M84 965q0 227 124 353t343 126q274 0 399 -217q105 -180 105 -504q0 -369 -152 -567q-141 -184 -381 -185q-180 0 -296.5 94.5t-116.5 251.5h133q47 -236 276 -235q188 0 291 141q115 160 115 500l-4 4q-63 -104 -150 -160q-102 -66 -242 -65q-197 0 -320.5 126 t-123.5 337zM215 965q0 -162 87 -257.5t245 -95.5q143 0 234 97.5t91 261.5q0 168 -91 265t-232 97q-156 0 -245 -97t-89 -271z" />
<glyph unicode=":" horiz-adv-x="569" d="M209 0v180h149v-180h-149zM209 827v181h149v-181h-149z" />
<glyph unicode=";" horiz-adv-x="569" d="M209 0v180h149v-243q0 -76 -32 -130q-39 -63 -117 -88v76q70 39 70 133v72h-70zM209 827v181h149v-181h-149z" />
<glyph unicode="&#x3c;" horiz-adv-x="1351" d="M164 469v109l1024 456v-131l-862 -381l862 -403v-131z" />
<glyph unicode="=" horiz-adv-x="1351" d="M164 254v123h1024v-123h-1024zM164 651v123h1024v-123h-1024z" />
<glyph unicode="&#x3e;" horiz-adv-x="1351" d="M164 -12v131l862 403l-862 381v131l1024 -456v-109z" />
<glyph unicode="?" horiz-adv-x="1024" d="M78 1057v49q0 176 124 291.5t318 115.5q203 0 325 -100.5t122 -284.5q0 -80 -31 -139t-113 -141l-133 -127q-76 -76 -102.5 -139.5t-26.5 -161.5v-47h-119v63q0 111 28 185.5t101 148.5q86 86 174 172q90 104 91 199q0 115 -88.5 188.5t-223.5 73.5q-160 0 -245 -103 q-76 -90 -76 -223v-20h-125zM430 0v180h150v-180h-150z" />
<glyph unicode="@" horiz-adv-x="1638" d="M82 743q0 313 224 541.5t544 228.5q301 0 503.5 -186.5t202.5 -460.5q0 -231 -151.5 -414.5t-327.5 -183.5q-63 0 -110 29t-64 78q-47 -49 -111.5 -76t-132.5 -27q-137 0 -215 97q-70 86 -69 204q0 236 145 426q154 201 361 201q78 0 140 -37t91 -98l31 94h137l-197 -588 q-10 -31 -22 -68.5t-12 -70.5q0 -57 59 -57q123 0 227 168q98 160 99 334q0 231 -166 382.5t-416 151.5q-274 0 -460.5 -196.5t-186.5 -485.5q0 -279 186.5 -472.5t472.5 -193.5q172 0 326 89q135 76 211 190h121q-86 -164 -268.5 -272.5t-389.5 -108.5q-342 0 -567 238 q-215 225 -215 544zM530 592q0 -86 44 -138.5t114 -52.5q135 0 244 199q96 174 96 326q0 70 -40 111.5t-99 41.5q-154 0 -262 -176q-96 -156 -97 -311z" />
<glyph unicode="A" horiz-adv-x="1366" d="M31 0l579 1475h158l565 -1475h-143l-170 463h-672l-174 -463h-143zM395 582h578l-289 774z" />
<glyph unicode="B" horiz-adv-x="1366" d="M166 0v1475h528q250 0 369 -95.5t119 -275.5q0 -131 -61.5 -213t-174.5 -105q125 -20 205 -100q98 -98 98 -264q0 -215 -121.5 -318.5t-357.5 -103.5h-604zM305 119h379q244 0 335 64.5t91 230.5q0 160 -100.5 225.5t-325.5 65.5h-379v-586zM305 823h352q215 0 308 80 q77 68 77 201q0 137 -91 194.5t-328 57.5h-318v-533z" />
<glyph unicode="C" horiz-adv-x="1478" d="M98 733q0 414 205 613q173 167 475 167h4q209 0 355 -96q178 -119 219 -370h-144q-41 193 -170 276q-109 72 -290 72q-254 0 -392 -195q-122 -175 -122 -456q0 -284 108 -453q135 -211 416 -211q158 0 272 86q139 104 193 319h145q-123 -524 -639 -524q-332 0 -497 244 q-137 203 -138 528z" />
<glyph unicode="D" horiz-adv-x="1478" d="M166 0v1475h526q168 0 285 -36t207 -126q84 -84 135 -242t51 -332q0 -383 -199 -581q-80 -80 -197.5 -119t-295.5 -39h-512zM305 119h361q143 0 243.5 33.5t163.5 97.5q82 82 120 205.5t38 283.5q0 168 -39 290t-113.5 196.5t-173 102.5t-260.5 28h-340v-1237z" />
<glyph unicode="E" horiz-adv-x="1251" d="M166 0v1475h981v-119h-842v-533h760v-118h-760v-586h862v-119h-1001z" />
<glyph unicode="F" d="M152 0v1475h950v-119h-811v-533h737v-118h-737v-705h-139z" />
<glyph unicode="G" horiz-adv-x="1593" d="M109 743q0 352 174 557q182 213 503 213q244 0 409 -117.5t212 -348.5h-143q-37 164 -167 256t-298 92q-276 0 -418 -193q-133 -180 -133 -508q0 -260 141 -432q150 -182 393 -182q215 0 355 135q74 74 113.5 180.5t39.5 247.5h-497v119h630v-762h-118v252 q-82 -143 -216.5 -217t-328.5 -74q-322 0 -494 225q-158 207 -157 557z" />
<glyph unicode="H" horiz-adv-x="1478" d="M164 0v1475h139v-633h873v633h139v-1475h-139v723h-873v-723h-139z" />
<glyph unicode="I" horiz-adv-x="569" d="M215 0v1475h139v-1475h-139z" />
<glyph unicode="J" horiz-adv-x="1024" d="M45 467h139q0 -117 8.5 -167t34 -102.5t80.5 -81t150 -28.5q121 0 182 66q72 76 72 245v1076h139v-1069q0 -225 -106.5 -335t-299.5 -110q-215 0 -307 121t-92 385z" />
<glyph unicode="K" horiz-adv-x="1366" d="M174 0v1475h139v-764l756 764h158l-582 -588l684 -887h-170l-614 801l-232 -232v-569h-139z" />
<glyph unicode="L" d="M166 0v1475h139v-1356h791v-119h-930z" />
<glyph unicode="M" horiz-adv-x="1705" d="M160 0v1475h213l483 -1301l479 1301h211v-1475h-139v1315l-487 -1315h-132l-485 1315l-4 -1315h-139z" />
<glyph unicode="N" horiz-adv-x="1478" d="M162 0v1475h157l852 -1289l5 1289h139v-1475h-162l-848 1286l-4 -1286h-139z" />
<glyph unicode="O" horiz-adv-x="1593" d="M109 741q0 330 170 541q186 231 512 231q330 0 516 -225q176 -211 176 -553q0 -322 -160 -530q-186 -244 -528 -244q-315 0 -500.5 212t-185.5 568zM248 739q0 -285 125 -458q145 -201 426 -201q274 0 420 205q124 176 124 452q0 301 -145 479.5t-405 178.5 q-262 0 -410 -197q-135 -180 -135 -459z" />
<glyph unicode="P" horiz-adv-x="1251" d="M160 0v1475h536q264 0 383 -119q101 -100 101 -293q0 -233 -193 -336q-143 -76 -364 -76h-324v-651h-139zM299 770h324q227 0 322 70.5t95 236.5q0 152 -116 221q-96 57 -258 58h-367v-586z" />
<glyph unicode="Q" horiz-adv-x="1593" d="M98 741q0 326 170 539q186 233 512 233q319 0 506 -206.5t187 -571.5q0 -176 -53.5 -330.5t-168.5 -265.5l197 -151l-78 -94l-217 167q-80 -49 -169 -74.5t-200 -25.5q-315 0 -500.5 212t-185.5 568zM238 739q0 -285 124 -458q145 -201 426 -201q145 0 256 65l-167 129 l73 97l199 -152q94 92 139 226t45 292q0 301 -145.5 479.5t-405.5 178.5q-262 0 -409 -197q-135 -180 -135 -459z" />
<glyph unicode="R" horiz-adv-x="1366" d="M164 0v1475h577q244 0 367 -86q135 -96 135 -302q0 -147 -61 -231q-53 -74 -178 -129q102 -37 145 -128t43 -265q0 -129 12 -213t49 -107v-14h-153q-25 45 -38 137t-13 189q0 176 -37 239q-61 104 -256 105h-453v-670h-139zM303 788h440q166 0 263.5 77t97.5 216 q0 125 -70 191q-88 84 -284 84h-447v-568z" />
<glyph unicode="S" horiz-adv-x="1251" d="M88 440h135q16 -184 127 -272t297 -88q190 0 289 94q86 82 86 203q0 90 -40 146.5t-116 94.5q-43 23 -334 97q-131 33 -206 71q-88 45 -138 111q-66 90 -65 225q0 164 127 273q136 118 369 118h4q236 0 370 -129q125 -119 125 -311h-133q0 162 -113 248q-96 74 -245 74 q-168 0 -267.5 -75t-99.5 -208q0 -80 35 -130t113 -89q276 -84 553 -166q200 -100 200 -336q0 -225 -172 -338q-141 -92 -360 -92q-266 0 -410 139q-131 127 -131 340z" />
<glyph unicode="T" d="M33 1356v119h1073v-119h-467v-1356h-139v1356h-467z" />
<glyph unicode="U" horiz-adv-x="1478" d="M168 555v920h139v-885q0 -270 105.5 -390t324.5 -120q217 0 320 106q115 121 114 398v891h140v-918q0 -299 -148.5 -447.5t-421.5 -148.5q-262 0 -407 131q-166 150 -166 463z" />
<glyph unicode="V" horiz-adv-x="1251" d="M37 1475h145l445 -1311l442 1311h145l-512 -1475h-153z" />
<glyph unicode="W" horiz-adv-x="1820" d="M29 1475h139l317 -1278l346 1278h156l336 -1278l326 1278h143l-387 -1475h-154l-342 1303l-346 -1303h-153z" />
<glyph unicode="X" horiz-adv-x="1251" d="M37 0l508 758l-488 717h162l404 -621l405 621h162l-483 -717l505 -758h-159l-430 651l-428 -651h-158z" />
<glyph unicode="Y" horiz-adv-x="1251" d="M25 1475h159l434 -711l445 711h162l-535 -832v-643h-139v633z" />
<glyph unicode="Z" horiz-adv-x="1251" d="M63 0v117l945 1239h-865v119h1037v-117l-944 -1239h950v-119h-1123z" />
<glyph unicode="[" horiz-adv-x="681" d="M186 -391v1904h392v-102h-261v-1700h256v-102h-387z" />
<glyph unicode="\" horiz-adv-x="569" d="M-94 1513h123l635 -1513h-123z" />
<glyph unicode="]" horiz-adv-x="681" d="M104 -289h261v1700h-256v102h387v-1904h-392v102z" />
<glyph unicode="^" horiz-adv-x="1351" d="M150 502l471 928h106l473 -928h-117l-411 803l-404 -803h-118z" />
<glyph unicode="_" horiz-adv-x="1024" d="M0 -125h1024v-119h-1024v119z" />
<glyph unicode="`" horiz-adv-x="681" d="M92 1460h160l227 -284h-104z" />
<glyph unicode="a" d="M94 276q0 141 105 224q94 74 266 96l153 20q45 6 93 13q78 12 104.5 38.5t26.5 94.5q0 102 -64.5 159.5t-197.5 57.5q-152 0 -223.5 -57.5t-88.5 -182.5h-125q0 154 107 248q117 102 330 103q170 0 266 -68q119 -84 119 -266v-574q0 -98 55 -98q31 0 74 16v-96 q-35 -12 -52.5 -16t-44.5 -4q-80 0 -112 30q-41 37 -41 133q-82 -92 -193 -137q-96 -39 -202 -39q-152 0 -250 78q-104 84 -105 227zM225 274q0 -88 66.5 -140t169.5 -52q150 0 256 72q125 83 125 237v166q-90 -37 -215 -49q-229 -25 -291 -55q-111 -55 -111 -179z" />
<glyph unicode="b" horiz-adv-x="1251" d="M162 0v1475h123v-584q49 84 150.5 141.5t226.5 57.5q233 0 360 -170q115 -154 115 -385q0 -264 -117 -410q-123 -154 -363 -154q-109 0 -213 57.5t-155 157.5l-4 -186h-123zM285 530q0 -188 86 -309q98 -139 280 -139q70 0 129.5 23.5t104.5 68.5q59 59 90 141t31 207 q0 209 -95.5 333t-265.5 124q-156 0 -258 -124t-102 -325z" />
<glyph unicode="c" d="M96 528q0 231 121 387q135 174 369 175q186 0 297.5 -88.5t140.5 -274.5h-125q-35 129 -118 190.5t-195 61.5q-172 0 -265.5 -129t-93.5 -322t84 -311q96 -135 277 -135q133 0 217 75.5t104 209.5h131q-39 -207 -170 -308q-115 -88 -282 -88q-252 0 -379 166 q-113 147 -113 391z" />
<glyph unicode="d" horiz-adv-x="1251" d="M115 526q0 233 108 385q127 178 369 179q119 0 222.5 -56.5t152.5 -142.5v584h123v-1475h-123v186q-53 -100 -161 -157.5t-214 -57.5q-225 0 -348 140q-129 145 -129 415zM246 522q0 -115 27.5 -197.5t88.5 -146.5q45 -45 104.5 -70.5t135.5 -25.5q182 0 279 139 q86 123 86 311q0 199 -102.5 323t-258.5 124q-172 0 -266 -125t-94 -332z" />
<glyph unicode="e" d="M92 522q0 242 127 400q135 168 361 168q231 0 352 -162q115 -154 115 -426h-824q0 -190 96.5 -305t262.5 -115q113 0 196 57q94 66 123 187h137q-49 -164 -147 -250q-117 -104 -307 -105q-258 0 -385 172q-106 145 -107 379zM223 604h692q0 158 -77 258q-90 117 -258 117 q-137 0 -230 -90q-102 -98 -127 -285z" />
<glyph unicode="f" horiz-adv-x="569" d="M41 958v103h158v168q0 143 57 208.5t164 65.5h48t58 -8v-113q-20 4 -35.5 7.5t-37.5 3.5q-68 0 -99.5 -41t-31.5 -135v-156h204v-103h-204v-958h-123v958h-158z" />
<glyph unicode="g" horiz-adv-x="1251" d="M115 535q0 272 127 413.5t354 141.5q123 0 229 -68q98 -61 138 -148l4 187h123v-971q0 -289 -150 -418q-123 -106 -348 -106q-178 0 -299 76q-131 82 -150 229h131q43 -195 310 -195q131 0 209.5 42t124.5 132q29 55 39 127t10 193q-45 -80 -142 -135q-111 -63 -233 -64 q-225 0 -351 155t-126 409zM343 202q97 -120 265 -120q160 0 259.5 125.5t99.5 324.5q0 197 -93 318q-98 129 -270 129q-80 0 -139 -26.5t-109 -75.5q-110 -110 -110 -336q0 -219 97 -339z" />
<glyph unicode="h" d="M147 0v1475h123v-562q109 111 182.5 144t159.5 33q250 0 342 -185q18 -35 26.5 -86t8.5 -108v-711h-123v698q0 145 -67.5 213t-202.5 68q-143 0 -234.5 -99.5t-91.5 -267.5v-612h-123z" />
<glyph unicode="i" horiz-adv-x="454" d="M160 1292v183h135v-183h-135zM166 0v1061h123v-1061h-123z" />
<glyph unicode="j" horiz-adv-x="454" d="M10 -301l49 -4q68 0 94.5 32.5t26.5 110.5v1223h123v-1206q0 -147 -35 -203q-45 -70 -176 -70q-35 0 -82 8v109zM174 1292v183h135v-183h-135z" />
<glyph unicode="k" horiz-adv-x="1024" d="M139 0v1475h123v-918l520 504h168l-397 -383l444 -678h-137l-397 592l-201 -191v-401h-123z" />
<glyph unicode="l" horiz-adv-x="454" d="M166 0v1475h123v-1475h-123z" />
<glyph unicode="m" horiz-adv-x="1705" d="M131 0v1061h123v-162q47 88 136 139.5t202 51.5q121 0 193.5 -50.5t111.5 -154.5q49 100 142.5 152.5t201.5 52.5q168 0 250 -95.5t82 -312.5v-682h-123v735q0 123 -52 183.5t-173 60.5q-86 0 -158 -44t-106 -114q-20 -41 -34 -107.5t-14 -131.5v-582h-122v735 q0 129 -56.5 186.5t-165.5 57.5q-98 0 -174 -51q-61 -41 -92 -103q-18 -39 -33.5 -107.5t-15.5 -135.5v-582h-123z" />
<glyph unicode="n" d="M147 0v1061h123v-148q82 88 163 132.5t179 44.5q84 0 157 -24t126 -78t73.5 -117.5t20.5 -159.5v-711h-123v696q0 283 -270 283q-197 0 -283 -170q-43 -86 -43 -211v-598h-123z" />
<glyph unicode="o" d="M78 528q0 254 130 408t361 154q236 0 367 -158q125 -152 125 -402q0 -246 -131 -402.5t-359 -156.5q-213 0 -348 142q-145 154 -145 415zM209 530q0 -211 96 -329.5t266 -118.5q178 0 275 137q84 121 84 307q0 205 -80 320q-92 133 -281 133q-172 0 -266 -123t-94 -326z " />
<glyph unicode="p" horiz-adv-x="1251" d="M162 -418v1479h123v-187q43 84 149.5 150t220.5 66q225 0 349 -134q133 -143 133 -430q0 -233 -115 -385q-129 -170 -358 -170q-111 0 -216.5 51.5t-162.5 147.5v-588h-123zM285 528q0 -201 102 -323.5t258 -122.5q166 0 263.5 122t97.5 335q0 125 -28 203.5t-83 134 t-117.5 79t-130.5 23.5q-180 0 -276 -137q-86 -121 -86 -314z" />
<glyph unicode="q" horiz-adv-x="1251" d="M115 532q0 254 108 396q123 162 375 162q98 0 197 -52q117 -61 168 -164l4 187h123v-1479h-123v588q-53 -88 -154.5 -143.5t-220.5 -55.5q-236 0 -363 168q-115 152 -114 393zM246 524q0 -125 27.5 -204.5t88.5 -141.5q45 -45 106.5 -70.5t135.5 -25.5q176 0 275 137 q88 125 88 313q0 193 -98.5 320t-260.5 127q-174 0 -268 -125t-94 -330z" />
<glyph unicode="r" horiz-adv-x="681" d="M154 0v1061h122v-199q53 133 152 187q76 41 199 41v-134q-109 0 -181.5 -36.5t-115.5 -120.5q-53 -106 -54 -269v-530h-122z" />
<glyph unicode="s" horiz-adv-x="1024" d="M94 332h125q29 -133 101.5 -191.5t214.5 -58.5q129 0 200 61q63 53 64 133q0 127 -176 179l-328 82q-176 72 -176 254q0 133 101.5 216t271.5 83q178 0 282.5 -79t126.5 -255h-125q-31 223 -287 223q-111 0 -175 -48t-64 -132q0 -117 176 -172q164 -47 328 -95 q176 -77 176 -251q0 -147 -117 -228.5t-311 -81.5q-174 0 -287 92q-121 98 -121 269z" />
<glyph unicode="t" horiz-adv-x="569" d="M41 958v103h149v295h123v-295h199v-103h-199v-743q0 -80 20.5 -106.5t88.5 -26.5q55 0 98 16v-102q-20 -6 -66 -15.5t-75 -9.5q-102 0 -145.5 51.5t-43.5 157.5v778h-149z" />
<glyph unicode="u" d="M147 352v709h123v-699q0 -280 271 -280h2q156 0 243 121q80 109 80 272v586h123v-1061h-123v147q-80 -96 -161.5 -136t-184.5 -40q-190 0 -287 109q-86 98 -86 272z" />
<glyph unicode="v" horiz-adv-x="1024" d="M35 1061h133l344 -909l344 909h133l-411 -1061h-138z" />
<glyph unicode="w" horiz-adv-x="1478" d="M31 1061h123l274 -905l246 905h137l233 -897l279 897h125l-344 -1061h-131l-232 891l-239 -891h-148z" />
<glyph unicode="x" horiz-adv-x="1024" d="M37 0l407 549l-374 512h151l293 -422l301 422h156l-383 -512l397 -549h-147l-322 459l-330 -459h-149z" />
<glyph unicode="y" horiz-adv-x="1024" d="M37 1061h137l340 -911l340 911h133l-399 -1057q-158 -422 -334 -422q-37 0 -68.5 6t-46.5 9v114q23 -4 48.5 -8t50.5 -4q84 0 133 94q49 131 78 199z" />
<glyph unicode="z" horiz-adv-x="1024" d="M68 0v109l704 849h-657v103h815v-109l-705 -850h731v-102h-888z" />
<glyph unicode="{" horiz-adv-x="681" d="M92 559q102 35 135 82t33 166v393q0 186 68.5 249.5t242.5 63.5q-102 -31 -145 -104q-35 -59 -35 -154v-395q0 -127 -31 -190q-39 -80 -137 -107q90 -23 129 -84t39 -188v-424q0 -100 31 -154q41 -70 149 -100q-170 -4 -240.5 57.5t-70.5 227.5v424q0 104 -31 155 q-39 63 -137 82z" />
<glyph unicode="|" horiz-adv-x="454" d="M166 0v1513h123v-1513h-123z" />
<glyph unicode="}" horiz-adv-x="681" d="M104 -383q102 31 146 104q35 59 35 154v395q0 127 30 191q39 80 138 106q-90 23 -129 84.5t-39 188.5v424q0 100 -31 153q-41 70 -150 101q170 4 241 -57.5t71 -227.5v-424q0 -104 30 -156q39 -63 138 -82q-102 -35 -135 -81.5t-33 -165.5v-394q0 -186 -68.5 -249.5 t-243.5 -63.5z" />
<glyph unicode="~" horiz-adv-x="1351" d="M164 453q92 133 153.5 172t135.5 39t180 -46q244 -102 270 -102q47 0 92 35q59 45 111 143l82 -69q-117 -223 -283 -224q-55 0 -127 25q-16 6 -143 57q-57 27 -115 54q-33 12 -67 12q-63 0 -112.5 -45t-109.5 -148z" />
<glyph unicode="&#xa1;" horiz-adv-x="681" d="M266 76l29 645h92l29 -645v-459h-150v459zM266 911v179h150v-179h-150z" />
<glyph unicode="&#xa2;" d="M92 526q0 262 134 413t358 151q59 0 116 -11l82 246h99l-90 -274q98 -39 156.5 -126t72.5 -198h-125q-39 139 -143 207l-277 -838q29 -6 50.5 -10t56.5 -4q133 0 218 77t105 208h131q-27 -174 -141 -281q-125 -115 -320 -115q-47 0 -69.5 3t-65.5 14l-92 -277h-96 l100 307q-121 57 -190.5 185.5t-69.5 322.5zM223 528q0 -125 41 -229t127 -160l273 830q-41 10 -82 10q-184 0 -281 -150q-78 -123 -78 -301z" />
<glyph unicode="&#xa3;" d="M51 662v86h168q-59 100 -82 161q-29 78 -28 162q0 174 121.5 273.5t334.5 99.5q219 0 348 -131q117 -119 117 -295v-19h-135q0 154 -88 244t-236 90q-150 0 -240.5 -74.5t-90.5 -193.5q0 -86 63 -195l74 -122h340v-86h-309q12 -37 17 -70t5 -72q0 -102 -57 -205 q-47 -84 -140 -178l7 -4q41 23 89 39t95 16q90 0 238 -57q74 -29 133 -29q49 0 94 21q59 27 127 96l69 -104q-90 -84 -174 -117q-72 -27 -172 -27q-57 0 -171.5 45t-198.5 45q-45 0 -101 -18q-39 -12 -116 -49l-72 119q129 94 182 215q35 78 35 153q0 49 -11.5 92t-31.5 89 h-203z" />
<glyph unicode="&#xa4;" d="M55 616q0 172 99 308l-88 88l106 108l90 -88q135 100 316 101q84 0 156.5 -26t142.5 -75l90 88l106 -108l-88 -88q98 -136 98 -318q0 -158 -98 -295l88 -86l-106 -108l-90 88q-135 -102 -314 -103q-162 0 -301 103l-90 -88l-106 108l88 86q-49 74 -74 147.5t-25 157.5z M203 614q0 -150 106.5 -258t259.5 -108q152 0 260.5 108t108.5 262q0 152 -105.5 259.5t-254.5 107.5q-162 0 -268.5 -102.5t-106.5 -268.5z" />
<glyph unicode="&#xa5;" d="M8 1475h156l403 -711l414 711h149l-350 -586h228v-111h-295l-78 -135v-86h373v-111h-373v-446h-131v446h-373v111h373v86l-78 135h-295v111h227z" />
<glyph unicode="&#xa6;" horiz-adv-x="454" d="M166 0v606h123v-606h-123zM166 907v606h123v-606h-123z" />
<glyph unicode="&#xa7;" d="M98 684q0 92 58.5 173t160.5 124q-51 55 -79.5 112.5t-28.5 123.5q0 133 102.5 214.5t266.5 81.5q176 0 266 -98t90 -268h-111q0 119 -53 182q-61 74 -197 74q-115 0 -174 -55.5t-59 -139.5q0 -119 180 -233q168 -100 338 -201q182 -131 182 -285q0 -98 -59 -176 q-51 -66 -166 -141q119 -100 119 -223q0 -145 -99.5 -232.5t-261.5 -87.5q-164 0 -266 90q-115 100 -114 283h124q0 -127 66 -194.5t190 -67.5q98 0 164 53t66 139q0 76 -58.5 141.5t-185.5 145.5l-258 162q-109 70 -156 141.5t-47 161.5zM209 702q0 -117 180 -231l359 -231 q86 45 134 103t48 126q0 59 -39 111.5t-127 105.5l-375 229q-84 -35 -132 -87t-48 -126z" />
<glyph unicode="&#xa8;" horiz-adv-x="681" d="M123 1196v209h133v-209h-133zM449 1196v209h133v-209h-133z" />
<glyph unicode="&#xa9;" horiz-adv-x="1638" d="M43 737q0 322 227.5 549t550.5 227q322 0 548 -226t226 -550q0 -322 -225 -549t-549 -227t-551 227.5t-227 548.5zM166 737q0 -285 186.5 -479.5t468.5 -194.5q283 0 467.5 194.5t184.5 479.5t-184.5 479.5t-467.5 194.5q-285 0 -470 -193.5t-185 -480.5zM426 748 q0 195 113.5 318.5t312.5 123.5q147 0 244.5 -80t117.5 -213h-110q-16 90 -86 146.5t-164 56.5q-150 0 -229.5 -99.5t-79.5 -252.5q0 -160 88 -260.5t221 -100.5q96 0 167 58.5t83 152.5h110q0 -127 -105 -214t-251 -87q-188 0 -310 124t-122 327z" />
<glyph unicode="&#xaa;" horiz-adv-x="684" d="M16 629v80h650v-80h-650zM16 1022q0 57 26 94t77 63.5t191.5 43t166 31t25.5 61.5q0 63 -41 100t-129 37q-184 0 -203 -149h-82q8 104 83 157t202 53q250 0 250 -196v-356q0 -37 16 -48q6 -4 20 -4q20 0 48 11v-58q-35 -12 -64 -12q-53 0 -76.5 21.5t-23.5 76.5 q-45 -49 -108.5 -77.5t-147.5 -28.5q-98 0 -164 48t-66 132zM96 1022q0 -53 42 -86t112 -33q113 0 182.5 51.5t69.5 137.5v102q-47 -18 -129 -29q-170 -18 -205 -37q-72 -37 -72 -106z" />
<glyph unicode="&#xab;" d="M231 467v129l299 231v-129l-213 -168l213 -163v-127zM608 467v129l299 231v-129l-213 -168l213 -163v-127z" />
<glyph unicode="&#xac;" horiz-adv-x="1351" d="M164 651v123h1024v-545h-131v422h-893z" />
<glyph unicode="&#xad;" horiz-adv-x="1351" d="M164 451v122h1024v-122h-1024z" />
<glyph unicode="&#xae;" horiz-adv-x="1638" d="M43 737q0 322 227.5 549t550.5 227q322 0 548 -226t226 -550q0 -322 -225 -549t-549 -227t-551 227.5t-227 548.5zM166 737q0 -285 186.5 -479.5t468.5 -194.5q283 0 467.5 194.5t184.5 479.5t-184.5 479.5t-467.5 194.5q-285 0 -470 -193.5t-185 -480.5zM532 305v866 h383q156 0 230 -55t74 -176q0 -104 -62 -166q-70 -70 -211 -69l262 -400h-127l-247 400h-195v-400h-107zM639 788h262q113 0 158 42t45 116q0 150 -213 150h-252v-308z" />
<glyph unicode="&#xaf;" horiz-adv-x="681" d="M47 1253v93h606v-93h-606z" />
<glyph unicode="&#xb0;" horiz-adv-x="819" d="M102 1137q0 127 90.5 217t217.5 90t217 -92t90 -215q0 -127 -90 -217.5t-217 -90.5t-217.5 90.5t-90.5 217.5zM184 1137q0 -94 65.5 -160t160.5 -66q94 0 159.5 66t65.5 160q0 90 -65.5 157.5t-159.5 67.5t-160 -65.5t-66 -159.5z" />
<glyph unicode="&#xb1;" horiz-adv-x="1351" d="M164 0v123h1024v-123h-1024zM164 553v123h450v348h123v-348h451v-123h-451v-348h-123v348h-450z" />
<glyph unicode="&#xb2;" horiz-adv-x="681" d="M31 647q0 76 17.5 126t64.5 97q70 70 266 181q88 49 120.5 81.5t46 65.5t13.5 76q0 80 -59.5 127t-145.5 47q-84 0 -145.5 -59.5t-61.5 -159.5h-90q0 141 95 217q84 68 210 67q127 0 208 -64t81 -173q0 -57 -17.5 -99t-66.5 -92q-41 -41 -243 -149q-96 -51 -144 -98 q-33 -33 -46 -59.5t-13 -65.5h522v-66h-612z" />
<glyph unicode="&#xb3;" horiz-adv-x="681" d="M23 897h86q0 -98 65.5 -149.5t167.5 -51.5q96 0 163.5 55.5t67.5 131.5q0 88 -63.5 135t-173.5 47h-64v63q143 0 206 41t63 125q0 70 -52.5 112t-146.5 42q-88 0 -145.5 -48t-57.5 -138h-84q0 70 33 129t98 92q35 16 74 23t96 7q121 0 196 -56t75 -152q0 -70 -30 -119 t-103 -80q82 -25 123.5 -76t41.5 -139q0 -115 -85 -187.5t-226 -72.5q-123 0 -198 37q-53 27 -86 81t-41 148z" />
<glyph unicode="&#xb4;" horiz-adv-x="681" d="M223 1176l228 284h157l-280 -284h-105z" />
<glyph unicode="&#xb5;" d="M147 -418v1479h123v-696q0 -156 78 -224q68 -59 195 -59q154 0 241 119q82 111 82 278v582h123v-1061h-123v147q-80 -96 -162.5 -136t-179.5 -40q-78 0 -138 16.5t-116 49.5v-455h-123z" />
<glyph unicode="&#xb6;" horiz-adv-x="1331" d="M135 1083q0 180 118 286t335 106h448v-1774h-123v1636h-262v-1636h-123v987h-10q-143 0 -258 109q-125 119 -125 286z" />
<glyph unicode="&#xb7;" horiz-adv-x="569" d="M184 715q0 41 30 70.5t73 29.5q41 0 68.5 -29.5t27.5 -68.5q0 -41 -27.5 -71t-68.5 -30t-72 29t-31 70z" />
<glyph unicode="&#xb8;" horiz-adv-x="681" d="M111 -385l30 61q90 -31 131 -30q55 0 95.5 24.5t40.5 69.5q0 39 -30 60.5t-73 21.5q-37 0 -90 -17l-31 27l123 168h80l-96 -121q43 12 76 12q61 0 110 -35.5t49 -105.5q0 -92 -75 -137q-61 -37 -162 -37q-45 0 -89 10.5t-89 28.5z" />
<glyph unicode="&#xb9;" horiz-adv-x="681" d="M178 1290v53q123 0 182.5 35t77.5 135h68v-866h-86v643h-242z" />
<glyph unicode="&#xba;" horiz-adv-x="684" d="M23 629v80h639v-80h-639zM23 1178q0 150 85 242.5t236 92.5q154 0 236 -92.5t82 -244.5q0 -145 -86.5 -239.5t-227.5 -94.5q-147 0 -236 89t-89 247zM102 1176q0 -123 64.5 -198t177.5 -75q106 0 172 76t66 199q0 133 -62.5 203.5t-175.5 70.5q-111 0 -176.5 -73.5 t-65.5 -202.5z" />
<glyph unicode="&#xbb;" d="M231 240v129l213 168l-213 163v127l299 -227v-129zM608 240v129l213 168l-213 163v127l299 -227v-129z" />
<glyph unicode="&#xbc;" horiz-adv-x="1708" d="M82 1290v53q123 0 182.5 35t77.5 135h68v-866h-86v643h-242zM344 -29l909 1473h105l-909 -1473h-105zM983 213v68l436 577h78v-577h129v-68h-129v-213h-86v213h-428zM1067 281h344v458z" />
<glyph unicode="&#xbd;" horiz-adv-x="1708" d="M82 1290v53q123 0 182.5 35t77.5 135h68v-866h-86v643h-242zM262 -29l909 1473h105l-909 -1473h-105zM1006 0q0 76 17 126t64 97q70 70 267 180q88 49 120.5 82t46 66t13.5 76q0 80 -59.5 127t-145.5 47q-84 0 -145.5 -59.5t-61.5 -159.5h-90q0 141 94 217q84 68 211 67 q127 0 208 -64t81 -173q0 -57 -17.5 -99.5t-66.5 -91.5q-41 -41 -244 -149q-96 -51 -143 -99q-33 -33 -46 -59.5t-13 -64.5h522v-66h-612z" />
<glyph unicode="&#xbe;" horiz-adv-x="1708" d="M82 897h86q0 -98 65.5 -149.5t167.5 -51.5q96 0 164 55.5t68 131.5q0 88 -63.5 135t-174.5 47h-63v63q143 0 205.5 41t62.5 125q0 70 -52 112t-147 42q-88 0 -145 -48t-57 -138h-84q0 70 32.5 129t98.5 92q35 16 73.5 23t96.5 7q121 0 195.5 -56t74.5 -152 q0 -70 -29.5 -119t-103.5 -80q82 -25 124 -76t42 -139q0 -115 -85 -187.5t-226 -72.5q-123 0 -199 37q-53 27 -86 81t-41 148zM426 -29l909 1473h105l-910 -1473h-104zM983 213v68l436 577h78v-577h129v-68h-129v-213h-86v213h-428zM1067 281h344v458z" />
<glyph unicode="&#xbf;" horiz-adv-x="1024" d="M57 -39q0 80 31 139.5t113 141.5l133 127q76 76 102.5 139t26.5 162v47h119v-64q0 -111 -28 -185.5t-101 -148.5q-88 -86 -174 -172q-90 -104 -91 -198q0 -115 88.5 -188.5t223.5 -73.5q160 0 245 102q76 90 76 223v21h125v-49q0 -176 -124 -292t-318 -116 q-203 0 -325 100.5t-122 284.5zM444 909v181h150v-181h-150z" />
<glyph unicode="&#xc0;" horiz-adv-x="1366" d="M31 0l579 1475h158l565 -1475h-143l-170 463h-672l-174 -463h-143zM395 582h578l-289 774zM434 1874h160l227 -284h-104z" />
<glyph unicode="&#xc1;" horiz-adv-x="1366" d="M31 0l579 1475h158l565 -1475h-143l-170 463h-672l-174 -463h-143zM395 582h578l-289 774zM565 1590l228 284h157l-280 -284h-105z" />
<glyph unicode="&#xc2;" horiz-adv-x="1366" d="M31 0l579 1475h158l565 -1475h-143l-170 463h-672l-174 -463h-143zM391 1590l234 284h137l231 -284h-133l-168 208l-168 -208h-133zM395 582h578l-289 774z" />
<glyph unicode="&#xc3;" horiz-adv-x="1366" d="M31 0l579 1475h158l565 -1475h-143l-170 463h-672l-174 -463h-143zM375 1614q0 82 54 140.5t132 58.5q47 0 147.5 -46t139.5 -46q33 0 55.5 22.5t34.5 79.5h78q-8 -86 -53.5 -143.5t-114.5 -57.5q-59 0 -157.5 46t-139.5 46q-37 0 -61.5 -22.5t-41.5 -77.5h-73zM395 582 h578l-289 774z" />
<glyph unicode="&#xc4;" horiz-adv-x="1366" d="M31 0l579 1475h158l565 -1475h-143l-170 463h-672l-174 -463h-143zM395 582h578l-289 774zM465 1610v209h133v-209h-133zM791 1610v209h133v-209h-133z" />
<glyph unicode="&#xc5;" horiz-adv-x="1366" d="M31 0l579 1475h158l565 -1475h-143l-170 463h-672l-174 -463h-143zM395 582h578l-289 774zM520 1798q0 84 59.5 145.5t145.5 61.5q84 0 143.5 -59.5t59.5 -145.5q0 -84 -59.5 -143t-143.5 -59q-82 0 -143.5 59.5t-61.5 140.5zM588 1800q0 -53 41 -94t96 -41q53 0 94 41 t41 94q0 55 -39 96.5t-96 41.5q-55 0 -96 -41t-41 -97z" />
<glyph unicode="&#xc6;" horiz-adv-x="2048" d="M10 0l641 1475h1291v-119h-836v-533h760v-118h-760v-586h860v-119h-999v463h-621l-196 -463h-140zM403 582h564v774h-234z" />
<glyph unicode="&#xc7;" horiz-adv-x="1478" d="M98 733q0 414 205 613q174 168 479 167q209 0 355 -96q178 -119 219 -370h-144q-41 193 -170 276q-109 72 -290 72q-254 0 -392 -195q-123 -176 -122 -461q0 -279 108 -448q135 -211 416 -211q158 0 272 86q139 104 193 319h145q-123 -524 -639 -524q-332 0 -497 244 q-137 203 -138 528zM510 -385l30 61q90 -31 131 -30q55 0 95.5 24.5t40.5 69.5q0 39 -30 60.5t-73 21.5q-37 0 -90 -17l-31 27l123 168h80l-96 -121q43 12 76 12q61 0 110 -35.5t49 -105.5q0 -92 -75 -137q-61 -37 -162 -37q-45 0 -89 10.5t-89 28.5z" />
<glyph unicode="&#xc8;" horiz-adv-x="1251" d="M166 0v1475h981v-119h-842v-533h760v-118h-760v-586h862v-119h-1001zM377 1874h160l227 -284h-104z" />
<glyph unicode="&#xc9;" horiz-adv-x="1251" d="M166 0v1475h981v-119h-842v-533h760v-118h-760v-586h862v-119h-1001zM508 1590l228 284h157l-280 -284h-105z" />
<glyph unicode="&#xca;" horiz-adv-x="1251" d="M166 0v1475h981v-119h-842v-533h760v-118h-760v-586h862v-119h-1001zM334 1590l234 284h137l231 -284h-133l-168 208l-168 -208h-133z" />
<glyph unicode="&#xcb;" horiz-adv-x="1251" d="M166 0v1475h981v-119h-842v-533h760v-118h-760v-586h862v-119h-1001zM408 1610v209h133v-209h-133zM734 1610v209h133v-209h-133z" />
<glyph unicode="&#xcc;" horiz-adv-x="569" d="M37 1874h160l227 -284h-104zM215 0v1475h139v-1475h-139z" />
<glyph unicode="&#xcd;" horiz-adv-x="569" d="M127 1590l228 284h157l-280 -284h-105zM215 0v1475h139v-1475h-139z" />
<glyph unicode="&#xce;" horiz-adv-x="569" d="M-47 1590l234 284h137l231 -284h-133l-168 208l-168 -208h-133zM215 0v1475h139v-1475h-139z" />
<glyph unicode="&#xcf;" horiz-adv-x="569" d="M27 1610v209h133v-209h-133zM215 0v1475h139v-1475h-139zM353 1610v209h133v-209h-133z" />
<glyph unicode="&#xd0;" horiz-adv-x="1478" d="M20 723v119h146v633h526q168 0 285 -36t207 -126q84 -84 135 -242t51 -332q0 -383 -199 -581q-80 -80 -197.5 -119t-295.5 -39h-512v723h-146zM305 119h361q143 0 243.5 33.5t163.5 97.5q82 82 120 205.5t38 283.5q0 168 -39 290t-113.5 196.5t-173 102.5t-260.5 28h-340 v-514h248v-119h-248v-604z" />
<glyph unicode="&#xd1;" horiz-adv-x="1478" d="M162 0v1475h157l852 -1289l5 1289h139v-1475h-162l-848 1286l-4 -1286h-139zM432 1614q0 82 54 140.5t132 58.5q47 0 147.5 -46t139.5 -46q33 0 55.5 22.5t34.5 79.5h78q-8 -86 -53.5 -143.5t-114.5 -57.5q-59 0 -157.5 46t-139.5 46q-37 0 -61.5 -22.5t-41.5 -77.5h-73z " />
<glyph unicode="&#xd2;" horiz-adv-x="1593" d="M109 741q0 330 170 541q186 231 512 231q330 0 516 -225q176 -211 176 -553q0 -322 -160 -530q-186 -244 -528 -244q-315 0 -500.5 212t-185.5 568zM248 739q0 -285 125 -458q145 -201 426 -201q274 0 420 205q124 176 124 452q0 301 -145 479.5t-405 178.5 q-262 0 -410 -197q-135 -180 -135 -459zM549 1874h160l227 -284h-104z" />
<glyph unicode="&#xd3;" horiz-adv-x="1593" d="M109 741q0 330 170 541q186 231 512 231q330 0 516 -225q176 -211 176 -553q0 -322 -160 -530q-186 -244 -528 -244q-315 0 -500.5 212t-185.5 568zM248 739q0 -285 125 -458q145 -201 426 -201q274 0 420 205q124 176 124 452q0 301 -145 479.5t-405 178.5 q-262 0 -410 -197q-135 -180 -135 -459zM680 1590l228 284h157l-280 -284h-105z" />
<glyph unicode="&#xd4;" horiz-adv-x="1593" d="M109 741q0 330 170 541q186 231 512 231q330 0 516 -225q176 -211 176 -553q0 -322 -160 -530q-186 -244 -528 -244q-315 0 -500.5 212t-185.5 568zM248 739q0 -285 125 -458q145 -201 426 -201q274 0 420 205q124 176 124 452q0 301 -145 479.5t-405 178.5 q-262 0 -410 -197q-135 -180 -135 -459zM506 1590l234 284h137l231 -284h-133l-168 208l-168 -208h-133z" />
<glyph unicode="&#xd5;" horiz-adv-x="1593" d="M109 741q0 330 170 541q186 231 512 231q330 0 516 -225q176 -211 176 -553q0 -322 -160 -530q-186 -244 -528 -244q-315 0 -500.5 212t-185.5 568zM248 739q0 -285 125 -458q145 -201 426 -201q274 0 420 205q124 176 124 452q0 301 -145 479.5t-405 178.5 q-262 0 -410 -197q-135 -180 -135 -459zM490 1614q0 82 54 140.5t132 58.5q47 0 147.5 -46t139.5 -46q33 0 55.5 22.5t34.5 79.5h78q-8 -86 -53.5 -143.5t-114.5 -57.5q-59 0 -157.5 46t-139.5 46q-37 0 -61.5 -22.5t-41.5 -77.5h-73z" />
<glyph unicode="&#xd6;" horiz-adv-x="1593" d="M109 741q0 330 170 541q186 231 512 231q330 0 516 -225q176 -211 176 -553q0 -322 -160 -530q-186 -244 -528 -244q-315 0 -500.5 212t-185.5 568zM248 739q0 -285 125 -458q145 -201 426 -201q274 0 420 205q124 176 124 452q0 301 -145 479.5t-405 178.5 q-262 0 -410 -197q-135 -180 -135 -459zM580 1610v209h133v-209h-133zM906 1610v209h133v-209h-133z" />
<glyph unicode="&#xd7;" horiz-adv-x="1351" d="M170 86l432 432l-432 432l76 74l432 -430l430 430l76 -74l-430 -432l430 -432l-76 -74l-430 430l-432 -430z" />
<glyph unicode="&#xd8;" horiz-adv-x="1593" d="M86 -6l182 207q-166 213 -166 540q0 328 172 541q188 231 510 231q145 0 265 -46t208 -132l170 195l80 -72l-178 -205q72 -82 110 -220t38 -298q0 -322 -160 -530q-186 -244 -529 -244q-137 0 -248.5 41t-199.5 121l-174 -199zM242 739q0 -127 27.5 -237.5t86.5 -200.5 l815 936q-141 158 -385 158q-262 0 -409 -197q-135 -180 -135 -459zM424 219q66 -66 159 -102.5t210 -36.5q274 0 419 205q125 176 125 452q0 125 -25.5 226.5t-74.5 183.5z" />
<glyph unicode="&#xd9;" horiz-adv-x="1478" d="M168 555v920h139v-885q0 -270 105.5 -390t324.5 -120q217 0 320 106q115 121 114 398v891h140v-918q0 -299 -148.5 -447.5t-421.5 -148.5q-262 0 -407 131q-166 150 -166 463zM491 1874h160l227 -284h-104z" />
<glyph unicode="&#xda;" horiz-adv-x="1478" d="M168 555v920h139v-885q0 -270 105.5 -390t324.5 -120q217 0 320 106q115 121 114 398v891h140v-918q0 -299 -148.5 -447.5t-421.5 -148.5q-262 0 -407 131q-166 150 -166 463zM622 1590l228 284h157l-280 -284h-105z" />
<glyph unicode="&#xdb;" horiz-adv-x="1478" d="M168 555v920h139v-885q0 -270 105.5 -390t324.5 -120q217 0 320 106q115 121 114 398v891h140v-918q0 -299 -148.5 -447.5t-421.5 -148.5q-262 0 -407 131q-166 150 -166 463zM448 1590l234 284h137l231 -284h-133l-168 208l-168 -208h-133z" />
<glyph unicode="&#xdc;" horiz-adv-x="1478" d="M168 555v920h139v-885q0 -270 105.5 -390t324.5 -120q217 0 320 106q115 121 114 398v891h140v-918q0 -299 -148.5 -447.5t-421.5 -148.5q-262 0 -407 131q-166 150 -166 463zM522 1610v209h133v-209h-133zM848 1610v209h133v-209h-133z" />
<glyph unicode="&#xdd;" horiz-adv-x="1251" d="M25 1475h159l434 -711l445 711h162l-535 -832v-643h-139v633zM508 1590l228 284h157l-280 -284h-105z" />
<glyph unicode="&#xde;" horiz-adv-x="1251" d="M160 0v1475h139v-308h397q266 0 385 -120q99 -101 99 -289q0 -217 -162 -322q-143 -92 -410 -92h-309v-344h-139zM299 463h328q213 0 307 61q106 70 106 244q0 281 -383 281h-358v-586z" />
<glyph unicode="&#xdf;" horiz-adv-x="1024" d="M106 0v1118q0 199 100.5 292t282.5 93q178 0 287 -102.5t109 -276.5q0 -90 -40 -161.5t-132 -137.5q102 -35 164.5 -136t62.5 -228q0 -244 -121 -371q-113 -119 -315 -119q-37 0 -72 11v108l76 -6q137 0 219 88t82 240q0 186 -89 271t-288 85v102q322 0 322 254 q0 119 -58 189q-66 80 -198 80q-152 0 -210.5 -64.5t-58.5 -226.5v-1102h-123z" />
<glyph unicode="&#xe0;" d="M94 276q0 141 105 224q94 74 266 96l153 20q45 6 93 13q78 12 104.5 38.5t26.5 94.5q0 102 -64.5 159.5t-197.5 57.5q-152 0 -223.5 -57.5t-88.5 -182.5h-125q0 154 107 248q117 102 330 103q170 0 266 -68q119 -84 119 -266v-574q0 -98 55 -98q31 0 74 16v-96 q-35 -12 -52.5 -16t-44.5 -4q-80 0 -112 30q-41 37 -41 133q-82 -92 -193 -137q-96 -39 -202 -39q-152 0 -250 78q-104 84 -105 227zM225 274q0 -88 66.5 -140t169.5 -52q150 0 256 72q125 83 125 237v166q-90 -37 -215 -49q-229 -25 -291 -55q-111 -55 -111 -179zM321 1460 h160l227 -284h-104z" />
<glyph unicode="&#xe1;" d="M94 276q0 141 105 224q94 74 266 96l153 20q45 6 93 13q78 12 104.5 38.5t26.5 94.5q0 102 -64.5 159.5t-197.5 57.5q-152 0 -223.5 -57.5t-88.5 -182.5h-125q0 154 107 248q117 102 330 103q170 0 266 -68q119 -84 119 -266v-574q0 -98 55 -98q31 0 74 16v-96 q-35 -12 -52.5 -16t-44.5 -4q-80 0 -112 30q-41 37 -41 133q-82 -92 -193 -137q-96 -39 -202 -39q-152 0 -250 78q-104 84 -105 227zM225 274q0 -88 66.5 -140t169.5 -52q150 0 256 72q125 83 125 237v166q-90 -37 -215 -49q-229 -25 -291 -55q-111 -55 -111 -179zM452 1176 l228 284h157l-280 -284h-105z" />
<glyph unicode="&#xe2;" d="M94 276q0 141 105 224q94 74 266 96l153 20q45 6 93 13q78 12 104.5 38.5t26.5 94.5q0 102 -64.5 159.5t-197.5 57.5q-152 0 -223.5 -57.5t-88.5 -182.5h-125q0 154 107 248q117 102 330 103q170 0 266 -68q119 -84 119 -266v-574q0 -98 55 -98q31 0 74 16v-96 q-35 -12 -52.5 -16t-44.5 -4q-80 0 -112 30q-41 37 -41 133q-82 -92 -193 -137q-96 -39 -202 -39q-152 0 -250 78q-104 84 -105 227zM225 274q0 -88 66.5 -140t169.5 -52q150 0 256 72q125 83 125 237v166q-90 -37 -215 -49q-229 -25 -291 -55q-111 -55 -111 -179zM278 1176 l234 284h137l231 -284h-133l-168 208l-168 -208h-133z" />
<glyph unicode="&#xe3;" d="M94 276q0 141 105 224q94 74 266 96l153 20q45 6 93 13q78 12 104.5 38.5t26.5 94.5q0 102 -64.5 159.5t-197.5 57.5q-152 0 -223.5 -57.5t-88.5 -182.5h-125q0 154 107 248q117 102 330 103q170 0 266 -68q119 -84 119 -266v-574q0 -98 55 -98q31 0 74 16v-96 q-35 -12 -52.5 -16t-44.5 -4q-80 0 -112 30q-41 37 -41 133q-82 -92 -193 -137q-96 -39 -202 -39q-152 0 -250 78q-104 84 -105 227zM225 274q0 -88 66.5 -140t169.5 -52q150 0 256 72q125 83 125 237v166q-90 -37 -215 -49q-229 -25 -291 -55q-111 -55 -111 -179zM262 1200 q0 82 54 140.5t132 58.5q47 0 147.5 -46t139.5 -46q33 0 55.5 22.5t34.5 79.5h78q-8 -86 -53.5 -143.5t-114.5 -57.5q-59 0 -157.5 46t-139.5 46q-37 0 -61.5 -22.5t-41.5 -77.5h-73z" />
<glyph unicode="&#xe4;" d="M94 276q0 141 105 224q94 74 266 96l153 20q45 6 93 13q78 12 104.5 38.5t26.5 94.5q0 102 -64.5 159.5t-197.5 57.5q-152 0 -223.5 -57.5t-88.5 -182.5h-125q0 154 107 248q117 102 330 103q170 0 266 -68q119 -84 119 -266v-574q0 -98 55 -98q31 0 74 16v-96 q-35 -12 -52.5 -16t-44.5 -4q-80 0 -112 30q-41 37 -41 133q-82 -92 -193 -137q-96 -39 -202 -39q-152 0 -250 78q-104 84 -105 227zM225 274q0 -88 66.5 -140t169.5 -52q150 0 256 72q125 83 125 237v166q-90 -37 -215 -49q-229 -25 -291 -55q-111 -55 -111 -179zM352 1196 v209h133v-209h-133zM678 1196v209h133v-209h-133z" />
<glyph unicode="&#xe5;" d="M94 276q0 141 105 224q94 74 266 96l153 20q45 6 93 13q78 12 104.5 38.5t26.5 94.5q0 102 -64.5 159.5t-197.5 57.5q-152 0 -223.5 -57.5t-88.5 -182.5h-125q0 154 107 248q117 102 330 103q170 0 266 -68q119 -84 119 -266v-574q0 -98 55 -98q31 0 74 16v-96 q-35 -12 -52.5 -16t-44.5 -4q-80 0 -112 30q-41 37 -41 133q-82 -92 -193 -137q-96 -39 -202 -39q-152 0 -250 78q-104 84 -105 227zM225 274q0 -88 66.5 -140t169.5 -52q150 0 256 72q125 83 125 237v166q-90 -37 -215 -49q-229 -25 -291 -55q-111 -55 -111 -179zM366 1384 q0 84 59.5 145.5t145.5 61.5q84 0 143.5 -59.5t59.5 -145.5q0 -84 -59.5 -143t-143.5 -59q-82 0 -143.5 59.5t-61.5 140.5zM434 1386q0 -53 41 -94t96 -41q53 0 94 41t41 94q0 55 -39 96.5t-96 41.5q-55 0 -96 -41t-41 -97z" />
<glyph unicode="&#xe6;" horiz-adv-x="1820" d="M80 270q0 195 170 281q88 43 272.5 61.5t233.5 43t49 94.5q0 129 -54.5 179t-201.5 50q-143 0 -212 -58.5t-85 -175.5h-127q0 170 125 263q113 82 295 82q139 0 234 -41t134 -134q61 94 148.5 134.5t218.5 40.5q236 0 348 -154q107 -145 107 -434h-799q0 -195 89 -307.5 t263 -112.5q123 0 201 65.5t108 180.5h129q-37 -162 -143 -254q-119 -102 -299 -103q-145 0 -243.5 55.5t-172.5 178.5q-84 -123 -191.5 -178.5t-250.5 -55.5q-168 0 -257 81t-89 218zM211 287q0 -94 55.5 -149.5t167.5 -55.5q178 0 274.5 88t96.5 248v143 q-68 -35 -249 -57.5t-249 -54.5q-45 -23 -70.5 -62t-25.5 -100zM936 604h668q0 172 -88.5 273.5t-235.5 101.5q-164 0 -258 -117q-86 -106 -86 -258z" />
<glyph unicode="&#xe7;" d="M96 528q0 231 121 387q135 174 369 175q186 0 297.5 -88.5t140.5 -274.5h-125q-35 129 -118 190.5t-195 61.5q-172 0 -265.5 -129t-93.5 -322t84 -311q96 -135 277 -135q133 0 217 75.5t104 209.5h131q-39 -207 -170 -308q-115 -88 -282 -88q-252 0 -379 166 q-113 147 -113 391zM340 -385l30 61q90 -31 131 -30q55 0 95.5 24.5t40.5 69.5q0 39 -30 60.5t-73 21.5q-37 0 -90 -17l-31 27l123 168h80l-96 -121q43 12 76 12q61 0 110 -35.5t49 -105.5q0 -92 -75 -137q-61 -37 -162 -37q-45 0 -89 10.5t-89 28.5z" />
<glyph unicode="&#xe8;" d="M92 522q0 242 127 400q135 168 361 168q231 0 352 -162q115 -154 115 -426h-824q0 -190 96.5 -305t262.5 -115q113 0 196 57q94 66 123 187h137q-49 -164 -147 -250q-117 -104 -307 -105q-258 0 -385 172q-106 145 -107 379zM223 604h692q0 158 -77 258q-90 117 -258 117 q-137 0 -230 -90q-102 -98 -127 -285zM321 1460h160l227 -284h-104z" />
<glyph unicode="&#xe9;" d="M92 522q0 242 127 400q135 168 361 168q231 0 352 -162q115 -154 115 -426h-824q0 -190 96.5 -305t262.5 -115q113 0 196 57q94 66 123 187h137q-49 -164 -147 -250q-117 -104 -307 -105q-258 0 -385 172q-106 145 -107 379zM223 604h692q0 158 -77 258q-90 117 -258 117 q-137 0 -230 -90q-102 -98 -127 -285zM452 1176l228 284h157l-280 -284h-105z" />
<glyph unicode="&#xea;" d="M92 522q0 242 127 400q135 168 361 168q231 0 352 -162q115 -154 115 -426h-824q0 -190 96.5 -305t262.5 -115q113 0 196 57q94 66 123 187h137q-49 -164 -147 -250q-117 -104 -307 -105q-258 0 -385 172q-106 145 -107 379zM223 604h692q0 158 -77 258q-90 117 -258 117 q-137 0 -230 -90q-102 -98 -127 -285zM278 1176l234 284h137l231 -284h-133l-168 208l-168 -208h-133z" />
<glyph unicode="&#xeb;" d="M92 522q0 242 127 400q135 168 361 168q231 0 352 -162q115 -154 115 -426h-824q0 -190 96.5 -305t262.5 -115q113 0 196 57q94 66 123 187h137q-49 -164 -147 -250q-117 -104 -307 -105q-258 0 -385 172q-106 145 -107 379zM223 604h692q0 158 -77 258q-90 117 -258 117 q-137 0 -230 -90q-102 -98 -127 -285zM352 1196v209h133v-209h-133zM678 1196v209h133v-209h-133z" />
<glyph unicode="&#xec;" horiz-adv-x="454" d="M-21 1460h160l227 -284h-104zM160 0v1061h123v-1061h-123z" />
<glyph unicode="&#xed;" horiz-adv-x="454" d="M69 1176l228 284h157l-280 -284h-105zM160 0v1061h123v-1061h-123z" />
<glyph unicode="&#xee;" horiz-adv-x="454" d="M-105 1176l234 284h137l231 -284h-133l-168 208l-168 -208h-133zM160 0v1061h123v-1061h-123z" />
<glyph unicode="&#xef;" horiz-adv-x="454" d="M-31 1196v209h133v-209h-133zM160 0v1061h123v-1061h-123zM295 1196v209h133v-209h-133z" />
<glyph unicode="&#xf0;" d="M78 532q0 236 117 383q137 174 407 175q-39 53 -84 96q-14 14 -102 92l-223 -111l-70 56l223 112q-74 61 -168 127l101 51q100 -61 180 -122l246 122l71 -57l-248 -123q139 -111 275 -250q147 -152 190 -237q68 -136 68 -314q0 -260 -136.5 -410.5t-355.5 -150.5 q-203 0 -338 133q-154 152 -153 428zM209 530q0 -213 97 -330.5t265 -117.5q174 0 271 131q88 120 88 313q0 213 -90 333t-269 120q-176 0 -269 -123t-93 -326z" />
<glyph unicode="&#xf1;" d="M147 0v1061h123v-148q82 88 163 132.5t179 44.5q84 0 157 -24t126 -78t73.5 -117.5t20.5 -159.5v-711h-123v696q0 283 -270 283q-197 0 -283 -170q-43 -86 -43 -211v-598h-123zM262 1200q0 82 54 140.5t132 58.5q47 0 147.5 -46t139.5 -46q33 0 55.5 22.5t34.5 79.5h78 q-8 -86 -53.5 -143.5t-114.5 -57.5q-59 0 -157.5 46t-139.5 46q-37 0 -61.5 -22.5t-41.5 -77.5h-73z" />
<glyph unicode="&#xf2;" d="M78 528q0 254 130 408t361 154q236 0 367 -158q125 -152 125 -402q0 -246 -131 -402.5t-359 -156.5q-213 0 -348 142q-145 154 -145 415zM209 530q0 -211 96 -329.5t266 -118.5q178 0 275 137q84 121 84 307q0 205 -80 320q-92 133 -281 133q-172 0 -266 -123t-94 -326z M321 1460h160l227 -284h-104z" />
<glyph unicode="&#xf3;" d="M78 528q0 254 130 408t361 154q236 0 367 -158q125 -152 125 -402q0 -246 -131 -402.5t-359 -156.5q-213 0 -348 142q-145 154 -145 415zM209 530q0 -211 96 -329.5t266 -118.5q178 0 275 137q84 121 84 307q0 205 -80 320q-92 133 -281 133q-172 0 -266 -123t-94 -326z M452 1176l228 284h157l-280 -284h-105z" />
<glyph unicode="&#xf4;" d="M78 528q0 254 130 408t361 154q236 0 367 -158q125 -152 125 -402q0 -246 -131 -402.5t-359 -156.5q-213 0 -348 142q-145 154 -145 415zM209 530q0 -211 96 -329.5t266 -118.5q178 0 275 137q84 121 84 307q0 205 -80 320q-92 133 -281 133q-172 0 -266 -123t-94 -326z M278 1176l234 284h137l231 -284h-133l-168 208l-168 -208h-133z" />
<glyph unicode="&#xf5;" d="M78 528q0 254 130 408t361 154q236 0 367 -158q125 -152 125 -402q0 -246 -131 -402.5t-359 -156.5q-213 0 -348 142q-145 154 -145 415zM209 530q0 -211 96 -329.5t266 -118.5q178 0 275 137q84 121 84 307q0 205 -80 320q-92 133 -281 133q-172 0 -266 -123t-94 -326z M262 1200q0 82 54 140.5t132 58.5q47 0 147.5 -46t139.5 -46q33 0 55.5 22.5t34.5 79.5h78q-8 -86 -53.5 -143.5t-114.5 -57.5q-59 0 -157.5 46t-139.5 46q-37 0 -61.5 -22.5t-41.5 -77.5h-73z" />
<glyph unicode="&#xf6;" d="M78 528q0 254 130 408t361 154q236 0 367 -158q125 -152 125 -402q0 -246 -131 -402.5t-359 -156.5q-213 0 -348 142q-145 154 -145 415zM209 530q0 -211 96 -329.5t266 -118.5q178 0 275 137q84 121 84 307q0 205 -80 320q-92 133 -281 133q-172 0 -266 -123t-94 -326z M352 1196v209h133v-209h-133zM678 1196v209h133v-209h-133z" />
<glyph unicode="&#xf7;" horiz-adv-x="1351" d="M164 451v122h1024v-122h-1024zM602 0v180h150v-180h-150zM602 844v180h150v-180h-150z" />
<glyph unicode="&#xf8;" d="M72 12l118 140q-109 141 -108 376q0 250 131 406t360 156q195 0 316 -109l106 127l72 -64l-113 -133q53 -72 82 -170t29 -204q0 -264 -130 -415t-360 -151q-199 0 -319 113l-111 -131zM213 530q0 -174 63 -276l533 633q-41 45 -100.5 68.5t-135.5 23.5q-172 0 -266 -124 t-94 -325zM332 174q96 -92 243 -92q178 0 275 137q84 121 84 307q0 94 -13.5 161t-50.5 126z" />
<glyph unicode="&#xf9;" d="M147 352v709h123v-699q0 -281 273 -280q156 0 243 121q80 109 80 272v586h123v-1061h-123v147q-80 -96 -161.5 -136t-184.5 -40q-190 0 -287 109q-86 98 -86 272zM321 1460h160l227 -284h-104z" />
<glyph unicode="&#xfa;" d="M147 352v709h123v-699q0 -281 273 -280q156 0 243 121q80 109 80 272v586h123v-1061h-123v147q-80 -96 -161.5 -136t-184.5 -40q-190 0 -287 109q-86 98 -86 272zM452 1176l228 284h157l-280 -284h-105z" />
<glyph unicode="&#xfb;" d="M147 352v709h123v-699q0 -281 273 -280q156 0 243 121q80 109 80 272v586h123v-1061h-123v147q-80 -96 -161.5 -136t-184.5 -40q-190 0 -287 109q-86 98 -86 272zM278 1176l234 284h137l231 -284h-133l-168 208l-168 -208h-133z" />
<glyph unicode="&#xfc;" d="M147 352v709h123v-699q0 -281 273 -280q156 0 243 121q80 109 80 272v586h123v-1061h-123v147q-80 -96 -161.5 -136t-184.5 -40q-190 0 -287 109q-86 98 -86 272zM352 1196v209h133v-209h-133zM678 1196v209h133v-209h-133z" />
<glyph unicode="&#xfd;" horiz-adv-x="1024" d="M37 1061h137l340 -911l340 911h133l-399 -1057q-158 -422 -334 -422q-37 0 -68.5 6t-46.5 9v114q23 -4 48.5 -8t50.5 -4q84 0 133 94q49 131 78 199zM395 1176l228 284h157l-280 -284h-105z" />
<glyph unicode="&#xfe;" horiz-adv-x="1251" d="M162 -418v1893h123v-601q55 100 159.5 158t214.5 58q238 0 363 -158q115 -145 115 -395q0 -256 -125 -411t-350 -155q-111 0 -215.5 51.5t-161.5 147.5v-588h-123zM285 528q0 -182 88 -305q100 -141 272 -141q174 0 270 129q91 121 91 328q0 84 -12.5 143t-35.5 104 q-45 92 -125.5 142.5t-187.5 50.5q-170 0 -265 -125t-95 -326z" />
<glyph unicode="&#xff;" horiz-adv-x="1024" d="M37 1061h137l340 -911l340 911h133l-399 -1057q-158 -422 -334 -422q-37 0 -68.5 6t-46.5 9v114q23 -4 48.5 -8t50.5 -4q84 0 133 94q49 131 78 199zM295 1196v209h133v-209h-133zM621 1196v209h133v-209h-133z" />
<glyph unicode="&#x152;" horiz-adv-x="2048" d="M84 731q0 362 163 572t462 210q303 0 417 -194v156h834v-119h-700v-533h655v-118h-655v-586h720v-119h-854v147q-178 -186 -413 -186q-303 0 -471 219q-158 207 -158 551zM223 739q0 -303 119 -473q129 -186 383 -186q80 0 170 37t140 87t67.5 109.5t17.5 145.5v569 q0 168 -105.5 267.5t-299.5 99.5q-240 0 -366 -167t-126 -489z" />
<glyph unicode="&#x153;" horiz-adv-x="1933" d="M74 532q0 254 124 406t357 152q158 0 266 -70q98 -63 160 -186q63 123 160 186q106 70 256 70q246 0 356 -160q98 -143 98 -428h-804l-3 -33q0 -141 80 -250q100 -137 283 -137q115 0 198 66.5t107 179.5h125q-35 -168 -149.5 -262.5t-282.5 -94.5q-145 0 -255 70 t-169 188q-57 -119 -171 -188.5t-259 -69.5q-215 0 -346 149.5t-131 411.5zM205 520q0 -209 94 -323.5t258 -114.5q162 0 260 122t98 343q0 205 -99 318.5t-269 113.5q-154 0 -244 -109q-98 -119 -98 -350zM1047 604h673q0 180 -83 277.5t-240 97.5q-152 0 -251 -105.5 t-99 -269.5z" />
<glyph unicode="&#x178;" horiz-adv-x="1251" d="M25 1475h159l434 -711l445 711h162l-535 -832v-643h-139v633zM408 1610v209h133v-209h-133zM734 1610v209h133v-209h-133z" />
<glyph unicode="&#x2c6;" horiz-adv-x="681" d="M49 1176l234 284h137l231 -284h-133l-168 208l-168 -208h-133z" />
<glyph unicode="&#x2dc;" horiz-adv-x="681" d="M33 1200q0 82 54 140.5t132 58.5q47 0 147.5 -46t139.5 -46q33 0 55.5 22.5t34.5 79.5h78q-8 -86 -53.5 -143.5t-114.5 -57.5q-59 0 -157.5 46t-139.5 46q-37 0 -61.5 -22.5t-41.5 -77.5h-73z" />
<glyph unicode="&#x2000;" horiz-adv-x="1002" />
<glyph unicode="&#x2001;" horiz-adv-x="2005" />
<glyph unicode="&#x2002;" horiz-adv-x="1002" />
<glyph unicode="&#x2003;" horiz-adv-x="2005" />
<glyph unicode="&#x2004;" horiz-adv-x="668" />
<glyph unicode="&#x2005;" horiz-adv-x="501" />
<glyph unicode="&#x2006;" horiz-adv-x="334" />
<glyph unicode="&#x2007;" horiz-adv-x="334" />
<glyph unicode="&#x2008;" horiz-adv-x="250" />
<glyph unicode="&#x2009;" horiz-adv-x="401" />
<glyph unicode="&#x200a;" horiz-adv-x="111" />
<glyph unicode="&#x2010;" horiz-adv-x="681" d="M82 469v127h518v-127h-518z" />
<glyph unicode="&#x2011;" horiz-adv-x="681" d="M82 469v127h518v-127h-518z" />
<glyph unicode="&#x2012;" horiz-adv-x="681" d="M82 469v127h518v-127h-518z" />
<glyph unicode="&#x2013;" horiz-adv-x="1024" d="M0 487v91h1024v-91h-1024z" />
<glyph unicode="&#x2014;" horiz-adv-x="2048" d="M0 487v91h2048v-91h-2048z" />
<glyph unicode="&#x2018;" horiz-adv-x="454" d="M141 1014v241q0 76 36 135.5t114 84.5v-76q-70 -43 -70 -131v-74h70v-180h-150z" />
<glyph unicode="&#x2019;" horiz-adv-x="454" d="M164 1014v76q70 43 69 131v73h-69v181h149v-242q0 -76 -32 -131q-39 -63 -117 -88z" />
<glyph unicode="&#x201a;" horiz-adv-x="454" d="M164 0v180h149v-241q0 -76 -32 -132q-39 -63 -117 -88v76q70 43 69 131v74h-69z" />
<glyph unicode="&#x201c;" horiz-adv-x="796" d="M176 1014v241q0 76 36 135.5t114 84.5v-76q-70 -43 -70 -131v-74h70v-180h-150zM485 1014v241q0 76 36 135.5t114 84.5v-76q-70 -43 -70 -131v-74h70v-180h-150z" />
<glyph unicode="&#x201d;" horiz-adv-x="796" d="M162 1014v76q70 43 69 131v73h-69v181h149v-242q0 -76 -32 -131q-39 -63 -117 -88zM471 1014v76q70 43 70 131v73h-70v181h150v-242q0 -76 -33 -131q-39 -63 -117 -88z" />
<glyph unicode="&#x201e;" horiz-adv-x="796" d="M162 0v180h149v-241q0 -76 -32 -132q-39 -63 -117 -88v76q70 43 69 131v74h-69zM471 0v180h150v-241q0 -76 -33 -132q-39 -63 -117 -88v76q70 43 70 131v74h-70z" />
<glyph unicode="&#x2022;" horiz-adv-x="1024" d="M143 737q0 152 108.5 260.5t260.5 108.5t260.5 -108.5t108.5 -260.5t-108.5 -260t-260.5 -108t-260.5 108.5t-108.5 259.5z" />
<glyph unicode="&#x2026;" horiz-adv-x="2048" d="M268 0v180h150v-180h-150zM950 0v180h150v-180h-150zM1632 0v180h150v-180h-150z" />
<glyph unicode="&#x202f;" horiz-adv-x="401" />
<glyph unicode="&#x2039;" horiz-adv-x="796" d="M248 467v129l299 231v-129l-213 -168l213 -163v-127z" />
<glyph unicode="&#x203a;" horiz-adv-x="796" d="M250 240v129l213 168l-213 163v127l299 -227v-129z" />
<glyph unicode="&#x205f;" horiz-adv-x="501" />
<glyph unicode="&#x2122;" horiz-adv-x="1925" d="M59 1393v82h656v-82h-275v-781h-106v781h-275zM874 612v863h197l246 -637l246 637h196v-863h-106v772l-301 -772h-70l-297 772l-4 -772h-107z" />
<glyph unicode="&#xe000;" horiz-adv-x="1064" d="M0 0v1065h1065v-1065h-1065z" />
</font>
</defs>
</svg>
